<svg xmlns="http://www.w3.org/2000/svg" xmlns:xlink="http://www.w3.org/1999/xlink" width="1400" zoomAndPan="magnify" viewBox="0 0 1050 299.999988" height="400" preserveAspectRatio="xMidYMid meet" version="1.0"><defs><g/></defs><rect x="-105" width="1260" fill="#ffffff" y="-29.999999" height="359.999986" fill-opacity="1"/><rect x="-105" width="1260" fill="#ffffff" y="-29.999999" height="359.999986" fill-opacity="1"/><g fill="#000000" fill-opacity="1"><g transform="translate(86.697207, 212.720616)"><g><path d="M 62.828125 -108.578125 C 77.722656 -108.710938 90.515625 -103.507812 101.203125 -92.96875 C 111.878906 -82.425781 117.289062 -69.640625 117.4375 -54.609375 C 117.570312 -39.703125 112.367188 -26.910156 101.828125 -16.234375 C 91.285156 -5.546875 78.492188 -0.132812 63.453125 0 C 51.234375 0 42.03125 -3.863281 35.84375 -11.59375 L 35.84375 40.484375 L 6.328125 40.484375 L 6.328125 -108.359375 L 35.84375 -108.359375 L 35.84375 -96.984375 C 41.601562 -104.429688 50.597656 -108.296875 62.828125 -108.578125 Z M 82.21875 -35.421875 C 87.5625 -40.765625 90.09375 -47.085938 89.8125 -54.390625 C 89.8125 -61.835938 87.210938 -68.164062 82.015625 -73.375 C 76.671875 -78.425781 70.34375 -80.953125 63.03125 -80.953125 C 55.582031 -80.953125 49.257812 -78.351562 44.0625 -73.15625 C 38.863281 -67.675781 36.265625 -61.351562 36.265625 -54.1875 C 36.546875 -46.59375 39.21875 -40.265625 44.28125 -35.203125 C 49.476562 -30.003906 55.800781 -27.40625 63.25 -27.40625 C 70.84375 -27.6875 77.164062 -30.359375 82.21875 -35.421875 Z M 82.21875 -35.421875 "/></g></g></g><g fill="#000000" fill-opacity="1"><g transform="translate(201.576677, 212.720616)"><g><path d="M 110.890625 -49.546875 C 111.035156 -46.597656 111.035156 -44.84375 110.890625 -44.28125 L 31.625 -44.484375 C 32.75 -41.253906 34.785156 -38.160156 37.734375 -35.203125 C 43.210938 -30.003906 49.539062 -27.40625 56.71875 -27.40625 C 64.300781 -27.6875 70.625 -30.359375 75.6875 -35.421875 L 76.53125 -36.265625 L 103.9375 -27.625 C 97.894531 -18.207031 91.570312 -11.457031 84.96875 -7.375 C 77.519531 -2.59375 68.171875 -0.132812 56.921875 0 C 42.023438 0.132812 29.234375 -5.0625 18.546875 -15.59375 C 7.867188 -26.132812 2.457031 -38.925781 2.3125 -53.96875 C 2.175781 -68.863281 7.378906 -81.65625 17.921875 -92.34375 C 28.460938 -103.019531 41.253906 -108.429688 56.296875 -108.578125 C 71.191406 -108.710938 83.976562 -103.507812 94.65625 -92.96875 C 105.34375 -82.425781 110.753906 -69.640625 110.890625 -54.609375 Z M 56.5 -80.953125 C 49.050781 -80.953125 42.726562 -78.351562 37.53125 -73.15625 C 34.851562 -70.207031 32.953125 -67.253906 31.828125 -64.296875 L 81.375 -64.296875 C 80.25 -67.253906 78.28125 -70.28125 75.46875 -73.375 C 70.132812 -78.425781 63.8125 -80.953125 56.5 -80.953125 Z M 56.5 -80.953125 "/></g></g></g><g fill="#000000" fill-opacity="1"><g transform="translate(308.867662, 212.720616)"><g><path d="M 87.28125 -108.78125 L 114.90625 -108.78125 L 114.90625 -0.203125 C 114.90625 14.691406 109.632812 27.410156 99.09375 37.953125 C 88.6875 48.492188 76.035156 53.832031 61.140625 53.96875 C 47.222656 54.113281 35.066406 49.546875 24.671875 40.265625 C 14.410156 31.273438 8.503906 19.960938 6.953125 6.328125 L 34.78125 6.328125 C 35.769531 10.828125 38.160156 14.972656 41.953125 18.765625 C 47.148438 23.960938 53.472656 26.5625 60.921875 26.5625 C 68.378906 26.5625 74.632812 23.890625 79.6875 18.546875 C 84.894531 13.347656 87.5 7.097656 87.5 -0.203125 L 87.28125 -10.96875 C 80.113281 -3.789062 71.398438 -0.203125 61.140625 -0.203125 C 46.097656 -0.0664062 33.238281 -5.269531 22.5625 -15.8125 C 11.875 -26.351562 6.53125 -39.144531 6.53125 -54.1875 C 6.394531 -69.21875 11.597656 -82.003906 22.140625 -92.546875 C 32.679688 -103.234375 45.46875 -108.644531 60.5 -108.78125 C 72.445312 -108.78125 81.375 -105.054688 87.28125 -97.609375 Z M 87.28125 -57.5625 C 86.71875 -63.738281 84.117188 -69.078125 79.484375 -73.578125 C 74.140625 -78.640625 67.8125 -81.171875 60.5 -81.171875 C 53.195312 -81.171875 46.945312 -78.570312 41.75 -73.375 C 36.539062 -67.882812 33.9375 -61.554688 33.9375 -54.390625 C 33.9375 -47.085938 36.609375 -40.765625 41.953125 -35.421875 C 47.148438 -30.222656 53.472656 -27.625 60.921875 -27.625 C 68.515625 -27.90625 74.769531 -30.570312 79.6875 -35.625 C 84.050781 -39.988281 86.582031 -45.191406 87.28125 -51.234375 Z M 87.28125 -57.5625 "/></g></g></g><g fill="#000000" fill-opacity="1"><g transform="translate(424.168729, 212.720616)"><g><path d="M 87.28125 -108.78125 L 114.90625 -108.78125 L 114.90625 -0.203125 C 114.90625 14.691406 109.632812 27.410156 99.09375 37.953125 C 88.6875 48.492188 76.035156 53.832031 61.140625 53.96875 C 47.222656 54.113281 35.066406 49.546875 24.671875 40.265625 C 14.410156 31.273438 8.503906 19.960938 6.953125 6.328125 L 34.78125 6.328125 C 35.769531 10.828125 38.160156 14.972656 41.953125 18.765625 C 47.148438 23.960938 53.472656 26.5625 60.921875 26.5625 C 68.378906 26.5625 74.632812 23.890625 79.6875 18.546875 C 84.894531 13.347656 87.5 7.097656 87.5 -0.203125 L 87.28125 -10.96875 C 80.113281 -3.789062 71.398438 -0.203125 61.140625 -0.203125 C 46.097656 -0.0664062 33.238281 -5.269531 22.5625 -15.8125 C 11.875 -26.351562 6.53125 -39.144531 6.53125 -54.1875 C 6.394531 -69.21875 11.597656 -82.003906 22.140625 -92.546875 C 32.679688 -103.234375 45.46875 -108.644531 60.5 -108.78125 C 72.445312 -108.78125 81.375 -105.054688 87.28125 -97.609375 Z M 87.28125 -57.5625 C 86.71875 -63.738281 84.117188 -69.078125 79.484375 -73.578125 C 74.140625 -78.640625 67.8125 -81.171875 60.5 -81.171875 C 53.195312 -81.171875 46.945312 -78.570312 41.75 -73.375 C 36.539062 -67.882812 33.9375 -61.554688 33.9375 -54.390625 C 33.9375 -47.085938 36.609375 -40.765625 41.953125 -35.421875 C 47.148438 -30.222656 53.472656 -27.625 60.921875 -27.625 C 68.515625 -27.90625 74.769531 -30.570312 79.6875 -35.625 C 84.050781 -39.988281 86.582031 -45.191406 87.28125 -51.234375 Z M 87.28125 -57.5625 "/></g></g></g><g fill="#000000" fill-opacity="1"><g transform="translate(539.469796, 212.720616)"><g><path d="M 91.28125 0 L 91.28125 -12.4375 C 81.164062 -4.144531 69.710938 0 56.921875 0 C 42.023438 0.132812 29.234375 -5.0625 18.546875 -15.59375 C 7.867188 -26.132812 2.457031 -38.925781 2.3125 -53.96875 C 2.175781 -68.863281 7.378906 -81.65625 17.921875 -92.34375 C 28.460938 -103.019531 41.253906 -108.429688 56.296875 -108.578125 C 69.359375 -108.578125 80.953125 -104.429688 91.078125 -96.140625 L 91.078125 -147.15625 L 120.59375 -147.15625 L 120.796875 0 Z M 75.6875 -35.421875 C 80.882812 -40.617188 83.484375 -46.941406 83.484375 -54.390625 C 83.203125 -61.984375 80.53125 -68.3125 75.46875 -73.375 C 70.132812 -78.425781 63.8125 -80.953125 56.5 -80.953125 C 49.050781 -80.953125 42.726562 -78.351562 37.53125 -73.15625 C 32.332031 -67.394531 29.800781 -61.070312 29.9375 -54.1875 C 29.9375 -46.738281 32.535156 -40.410156 37.734375 -35.203125 C 42.929688 -30.003906 49.257812 -27.40625 56.71875 -27.40625 C 64.300781 -27.6875 70.625 -30.359375 75.6875 -35.421875 Z M 75.6875 -35.421875 "/></g></g></g><path fill="#c2f9bb" d="M 800.640625 126.492188 L 848.230469 126.492188 L 848.230469 239.699219 L 800.640625 239.699219 Z M 800.640625 126.492188 " fill-opacity="1" fill-rule="nonzero"/><path fill="#90c2e7" d="M 848.230469 48.988281 L 895.820312 48.988281 L 895.820312 239.707031 L 848.230469 239.707031 Z M 848.230469 48.988281 " fill-opacity="1" fill-rule="nonzero"/><path fill="#4e8098" d="M 753.042969 126.492188 L 800.640625 126.492188 L 800.640625 239.699219 L 753.042969 239.699219 Z M 753.042969 126.492188 " fill-opacity="1" fill-rule="nonzero"/><path fill="#81c14b" d="M 705.445312 48.988281 L 753.03125 48.988281 L 753.03125 239.707031 L 705.445312 239.707031 Z M 705.445312 48.988281 " fill-opacity="1" fill-rule="nonzero"/><path fill="#4e8098" d="M 906.890625 174.097656 L 954.480469 174.097656 L 954.480469 239.699219 L 906.890625 239.699219 Z M 906.890625 174.097656 " fill-opacity="1" fill-rule="nonzero"/></svg>